<svg width="323" height="78" viewBox="0 0 323 78" xmlns="http://www.w3.org/2000/svg"><title>perth_now_logo</title><defs><linearGradient x1="50%" y1="6.563%" x2="50%" y2="95.385%" id="a"><stop stop-color="#F5836A" offset="0%"/><stop stop-color="#EF4136" offset="100%"/></linearGradient></defs><g fill="none" fill-rule="evenodd"><path d="M181.282.992c-9.18 0-16.626 7.616-16.626 17.005v23.67c0 9.395 7.449 17.008 16.626 17.008H306.06c9.18 0 16.62-7.616 16.62-17.007V17.995c0-9.39-7.443-17.005-16.62-17.005h-124.78v.002z" fill="#EF4136"/><path d="M303.553 7.23H183.785c-7.193 0-13.026 5.967-13.026 13.325v9.72c0-7.36 5.833-13.331 13.026-13.331h119.768c7.198 0 13.034 5.969 13.034 13.33v-9.72c0-7.357-5.836-13.323-13.034-13.323z" fill="url(#a)"/><g fill="#FFF"><path d="M178.597 12.069h8.247v5.698h.146c1.593-3.552 4.85-6.588 10.634-6.588 9.33 0 12.661 6.736 12.661 13.986v22.422h-8.681V29.608c0-3.925-.289-10.438-6.367-10.438-5.712 0-7.959 4.294-7.959 9.028v19.389h-8.681V12.069zM232.927 11.182c10.492 0 18.882 7.475 18.882 18.65 0 11.172-8.39 18.647-18.882 18.647-10.491 0-18.882-7.478-18.882-18.648 0-11.174 8.391-18.65 18.882-18.65zm0 29.3c6.364 0 10.2-5.102 10.2-10.653s-3.833-10.656-10.2-10.656c-6.366 0-10.2 5.105-10.2 10.656s3.834 10.654 10.2 10.654zM250.865 12.069h9.401l7.53 24.864h.146l7.017-24.864h9.404l7.523 24.864h.15l7.237-24.864h8.75l-11.793 35.52h-8.607l-8.25-24.27h-.146l-7.303 24.27h-8.972l-12.087-35.52z"/></g><g fill="#231F20"><path d="M18.83 11.093C8.842 11.093.742 19.342.742 29.519c0 .09.012.172.012.256l-.051.085v28.306h8.39V45.03c2.814 1.837 6.147 2.916 9.737 2.916 9.989 0 18.088-8.25 18.088-18.427s-8.1-18.426-18.088-18.426zm.003 28.43c-5.427 0-9.824-4.479-9.824-10.004 0-5.525 4.397-10.008 9.824-10.008 4.347 0 8.023 2.878 9.317 6.862.25.953.38 1.945.38 2.956 0 2.135-.58 4.198-1.654 5.92-1.776 2.585-4.715 4.274-8.043 4.274zM157.986 29.477c-.046-11.672-4.418-18.384-15.173-18.384-3.568 0-6.729.966-9.695 3.519V1.032h-8.388v46.665h8.388V28.004c0-4.176 2.123-8.493 9.123-8.493 4.465 0 7.33 3.13 7.33 7.193.037.91.045 1.738.045 2.405v18.586h8.388v-18.18c-.008-.01-.013-.026-.018-.038zM120.203 39.117V39.1a.18.18 0 0 1-.037.018c-3.822-.199-7.508-3.127-8.75-6.301-.282-.718-.445-1.905-.445-3.266V19.342h9.227v-7.379h-9.227V1.903h-8.393v25.866c0 1.215.116 3.77.338 4.92 1.625 8.477 8.955 14.877 17.75 14.877v-8.423c-.152 0-.308-.019-.463-.026zM65.404 35.105c-1.76 2.666-4.749 4.42-8.142 4.42-4.455 0-8.21-3.021-9.414-7.155h18.826c0 .002 0 .005-.003.007H75.2c.094-.957.148-1.884.148-2.853 0-10.178-8.097-18.427-18.086-18.427-9.988 0-18.088 8.25-18.088 18.427 0 10.175 8.102 18.424 18.088 18.424 5.977 0 11.278-2.953 14.572-7.507l-6.43-5.336zM57.26 19.511c4.209 0 7.791 2.705 9.187 6.496H48.07c1.398-3.791 4.978-6.496 9.19-6.496zM97.383 11.16a8.184 8.184 0 0 0-.996-.07c-.052 0-.103.012-.158.012-.071 0-.14-.012-.212-.012-3.572 0-7.48.875-9.7 4.158v-3.285H77.93v35.734h8.388v-18.45c0-.033.005-.084.005-.124 0-4.967 2.836-9.612 9.695-9.612 1.199 0 2.348.232 3.41.633v-8.711a18.338 18.338 0 0 0-2.044-.272z"/></g><g fill="#231F20"><path d="M223.146 70.877c0 .306.047.577.123.798.25.733.994.886 1.631.886.56 0 1.41-.205 1.41-1.107 0-.63-.48-.798-2.387-1.395-1.755-.545-3.761-1.072-3.761-3.521 0-2.806 2.19-4.013 4.474-4.013 2.403 0 4.525 1.005 4.62 3.965h-3.226c.062-.462-.125-.767-.397-.971-.28-.224-.669-.308-1.011-.308-.467 0-1.229.14-1.229.82.062.87 1.646 1.056 3.209 1.533 1.566.476 3.117 1.274 3.117 3.504 0 3.162-2.648 4.182-5.115 4.182-1.26 0-4.849-.492-4.881-4.37l3.423-.003zM239.172 66.125h2.973v1.132h.032c.572-.885 1.392-1.342 2.615-1.342 1.449 0 2.771.968 2.771 2.989v6.068h-3.082v-4.634c0-1.022-.107-1.737-1.004-1.737-.527 0-1.223.289-1.223 1.703v4.669h-3.082v-8.848zM253.796 70.539c0 1.052-.25 2.192-1.354 2.192-1.101 0-1.35-1.138-1.35-2.192 0-1.038.249-2.175 1.35-2.175 1.104 0 1.354 1.138 1.354 2.175zm2.974-7.74h-3.082v4.304h-.03c-.47-.75-1.29-1.191-2.207-1.191-2.707 0-3.44 2.519-3.44 4.592 0 2.209 1.105 4.677 3.395 4.677 1.508 0 1.975-.632 2.363-1.194h.029v.977h2.975V62.8h-.003zM262.652 71.821c-.045.92-.586 1.379-1.283 1.379-.557 0-.961-.407-.961-.816 0-.596.357-.783 1.037-.957.419-.101.838-.22 1.207-.423v.817zm2.955-2.45c0-1.703.031-3.458-3.819-3.458-1.909 0-4.044.408-4.138 2.897h2.851c.017-.368.204-.896 1.146-.896.498 0 1.006.221 1.006.813 0 .558-.416.694-.834.779-1.564.322-4.539.222-4.539 2.998 0 1.856 1.285 2.675 2.837 2.675.989 0 1.937-.237 2.584-1.055h.032c-.018.252.031.608.109.845h3.139c-.342-.559-.373-1.31-.373-1.97V69.37h-.001zM272.086 74.287c-.25.786-.529 1.788-1.011 2.448-.808 1.105-2.052 1.09-3.246 1.09h-1.399v-2.687h.715c.312 0 .713.034.934-.085.186-.103.294-.272.294-.666 0-.424-1.181-3.68-1.351-4.19l-1.371-4.073h3.296l1.29 5.08h.031l1.307-5.08h3.186l-2.675 8.163zM280.324 65.913h-3.109v-3.112h9.627v3.112h-3.109v9.056h-3.407l-.002-9.056zM287.445 66.125h3.084v8.844h-3.084v-8.844zm3.084-.96h-3.084V62.8h3.084v2.366zM291.307 66.125h2.971v1.181h.031c.623-1.019 1.526-1.393 2.646-1.393.872 0 1.805.493 2.182 1.377.122-.102.745-1.377 2.754-1.377 2.068 0 2.771 1.563 2.771 2.99v6.066h-3.083V70.18c0-.833-.077-1.583-1.012-1.583-.776 0-1.043.663-1.043 1.583v4.789h-3.082V70.18c0-.833-.077-1.583-1.012-1.583-.777 0-1.041.663-1.041 1.583v4.789h-3.082v-8.844zM308.077 69.555c.143-.947.671-1.473 1.587-1.473.792 0 1.354.66 1.354 1.473h-2.941zm5.893 1.749c0-3.425-1.383-5.391-4.584-5.391-2.551 0-4.261 2.102-4.261 4.661 0 2.941 1.943 4.61 4.524 4.61 1.835 0 3.527-.887 4.149-2.793h-2.877c-.25.419-.794.62-1.291.62-.963 0-1.492-.71-1.569-1.706h5.909v-.001zM319.621 68.702a.855.855 0 0 0-.356-.66 1.017 1.017 0 0 0-.683-.255c-.435 0-.931.103-.931.68 0 .258.187.373.356.458.515.238 1.675.308 2.702.682 1.024.357 1.925 1.02 1.925 2.463 0 2.449-2.144 3.112-4.098 3.112-1.897 0-3.979-.835-4.026-3.112h2.938c.016.307.143.559.372.77.156.15.45.256.822.256.405 0 1.039-.174 1.039-.681 0-.515-.262-.667-1.689-.938-2.347-.446-3.295-1.26-3.295-2.756 0-2.23 2.191-2.808 3.808-2.808 1.738 0 3.836.526 3.915 2.79h-2.799zM238.529 74.969h-2.973v-1.13h-.031c-.574.885-1.393 1.343-2.617 1.343-1.447 0-2.77-.967-2.77-2.993v-6.065h3.08v4.632c0 1.024.11 1.74 1.006 1.74.526 0 1.224-.292 1.224-1.707v-4.668h3.081v8.848zM230.835 63.012h-.911v-.68h2.818v.68h-.909v1.969h-.998v-1.969zM233.072 62.333h.902v.929h.008c.154-.148.354-.256.736-.256.422 0 .809.214.809.656v1.319h-.9v-1.01c0-.22-.031-.377-.295-.377-.155 0-.357.064-.357.37v1.017h-.901l-.002-2.648zM236.65 63.803c.043-.21.197-.328.463-.328.234 0 .396.146.396.328h-.859zm1.725.38c0-.751-.404-1.176-1.342-1.176-.747 0-1.248.455-1.248 1.016 0 .641.568 1.007 1.324 1.007.537 0 1.033-.194 1.216-.609h-.841c-.072.096-.231.137-.379.137-.281 0-.438-.154-.461-.375h1.731z"/></g></g></svg>